<svg xmlns="http://www.w3.org/2000/svg" version="1.1" width="48px" height="48px" style="shape-rendering:geometricPrecision; text-rendering:geometricPrecision; image-rendering:optimizeQuality; fill-rule:evenodd; clip-rule:evenodd" xmlns:xlink="http://www.w3.org/1999/xlink" transform="rotate(0) scale(1, 1)">
<g><path style="opacity:0.666" fill="#00ff00" d="M 17.5,-0.5 C 19.1667,-0.5 20.8333,-0.5 22.5,-0.5C 23.1667,0.833333 23.8333,0.833333 24.5,-0.5C 26.1667,-0.5 27.8333,-0.5 29.5,-0.5C 29.9421,3.99884 32.2754,6.99884 36.5,8.5C 37.4287,9.68884 37.762,11.0222 37.5,12.5C 28.1667,13.8333 18.8333,13.8333 9.5,12.5C 9.33714,9.06035 11.0038,7.06035 14.5,6.5C 15.6995,4.22931 16.6995,1.89598 17.5,-0.5 Z M 19.5,2.5 C 21.8439,3.67165 24.1772,3.67165 26.5,2.5C 27.8772,4.28947 28.8772,6.28947 29.5,8.5C 30.376,9.25083 31.376,9.75083 32.5,10C 29.443,10.2565 26.443,10.7565 23.5,11.5C 20.557,10.7565 17.557,10.2565 14.5,10C 17.7012,8.61909 19.3679,6.11909 19.5,2.5 Z"/></g>
<g><path style="opacity:0.926" fill="#00ff00" d="M 5.5,15.5 C 17.747,15.1782 29.9136,15.5115 42,16.5C 42.6667,24.1667 42.6667,31.8333 42,39.5C 38.5447,40.7914 35.0447,40.7914 31.5,39.5C 34.5926,39.0019 37.4259,38.0019 40,36.5C 40.6667,30.8333 40.6667,25.1667 40,19.5C 39.5,19 39,18.5 38.5,18C 28.5,17.3333 18.5,17.3333 8.5,18C 8,18.5 7.5,19 7,19.5C 6.33333,25.1667 6.33333,30.8333 7,36.5C 7.5,37 8,37.5 8.5,38C 11.4816,38.498 14.4816,38.6646 17.5,38.5C 17.5,34.1667 17.5,29.8333 17.5,25.5C 21.5,25.5 25.5,25.5 29.5,25.5C 29.5,31.8333 29.5,38.1667 29.5,44.5C 30.9778,44.238 32.3112,44.5713 33.5,45.5C 26.8333,46.8333 20.1667,46.8333 13.5,45.5C 14.6888,44.5713 16.0222,44.238 17.5,44.5C 17.5,43.1667 17.5,41.8333 17.5,40.5C 13.2325,40.797 9.06588,40.4637 5,39.5C 4.20039,31.4211 4.36706,23.4211 5.5,15.5 Z M 20.5,27.5 C 22.7925,27.2436 24.9592,27.5769 27,28.5C 27.4994,33.8229 27.666,39.1563 27.5,44.5C 24.8333,44.5 22.1667,44.5 19.5,44.5C 19.2143,38.7414 19.5476,33.0748 20.5,27.5 Z"/></g>
</svg>