<svg xmlns="http://www.w3.org/2000/svg" xmlns:xlink="http://www.w3.org/1999/xlink" width="600" zoomAndPan="magnify" viewBox="0 0 450 149.999998" height="200" preserveAspectRatio="xMidYMid meet" version="1.0"><defs><g/></defs><rect x="-45" width="540" fill="#ffffff" y="-15" height="179.999997" fill-opacity="1"/><rect x="-45" width="540" fill="#000000" y="-15" height="179.999997" fill-opacity="1"/><g fill="#00ff00" fill-opacity="1"><g transform="translate(142.968745, 64.499998)"><g><path d="M 9.640625 -0.546875 L 8.703125 0.421875 L 2.4375 -5.84375 L 8.703125 -12.109375 L 9.640625 -11.125 L 4.359375 -5.84375 Z M 9.640625 -0.546875 "/></g></g></g><g fill="#00ff00" fill-opacity="1"><g transform="translate(156.639662, 64.499998)"><g><path d="M 11.375 -11.390625 C 11.375 -9.859375 10.890625 -8.71875 9.921875 -7.96875 C 8.960938 -7.21875 7.613281 -6.84375 5.875 -6.84375 L 2.28125 -6.84375 L 2.28125 0 L 0.59375 0 L 0.59375 -15.953125 L 5.859375 -15.953125 C 7.609375 -15.953125 8.960938 -15.570312 9.921875 -14.8125 C 10.890625 -14.050781 11.375 -12.910156 11.375 -11.390625 Z M 9.703125 -11.390625 C 9.703125 -12.492188 9.351562 -13.289062 8.65625 -13.78125 C 7.96875 -14.28125 7.039062 -14.53125 5.875 -14.53125 L 2.28125 -14.53125 L 2.28125 -8.265625 L 5.875 -8.265625 C 7.039062 -8.265625 7.96875 -8.507812 8.65625 -9 C 9.351562 -9.5 9.703125 -10.296875 9.703125 -11.390625 Z M 9.703125 -11.390625 "/></g></g></g><g fill="#00ff00" fill-opacity="1"><g transform="translate(170.310579, 64.499998)"><g><path d="M 8.96875 -5.84375 L 2.703125 0.421875 L 1.75 -0.546875 L 7.03125 -5.84375 L 1.75 -11.125 L 2.703125 -12.109375 Z M 8.96875 -5.84375 "/></g></g></g><g fill="#00ff00" fill-opacity="1"><g transform="translate(183.981496, 64.499998)"><g/></g></g><g fill="#00ff00" fill-opacity="1"><g transform="translate(197.652412, 64.499998)"><g><path d="M 9.109375 0 L 2.28125 0 L 2.28125 -1.4375 L 4.859375 -1.4375 L 4.859375 -14.53125 L 2.28125 -14.53125 L 2.28125 -15.953125 L 9.109375 -15.953125 L 9.109375 -14.53125 L 6.546875 -14.53125 L 6.546875 -1.4375 L 9.109375 -1.4375 Z M 9.109375 0 "/></g></g></g><g fill="#00ff00" fill-opacity="1"><g transform="translate(211.323329, 64.499998)"><g/></g></g><g fill="#00ff00" fill-opacity="1"><g transform="translate(224.994246, 64.499998)"><g><path d="M 11.5 -4.1875 C 11.082031 -2.8125 10.398438 -1.722656 9.453125 -0.921875 C 8.503906 -0.117188 7.3125 0.28125 5.875 0.28125 C 4.757812 0.28125 3.816406 0.0507812 3.046875 -0.40625 C 2.273438 -0.863281 1.640625 -1.472656 1.140625 -2.234375 C 0.648438 -2.992188 0.296875 -3.867188 0.078125 -4.859375 C -0.140625 -5.859375 -0.25 -6.894531 -0.25 -7.96875 C -0.25 -9.03125 -0.140625 -10.054688 0.078125 -11.046875 C 0.296875 -12.046875 0.648438 -12.925781 1.140625 -13.6875 C 1.640625 -14.457031 2.273438 -15.070312 3.046875 -15.53125 C 3.816406 -16 4.757812 -16.234375 5.875 -16.234375 C 6.863281 -16.234375 7.707031 -16.054688 8.40625 -15.703125 C 9.113281 -15.347656 9.632812 -14.8125 9.96875 -14.09375 L 9.96875 -15.953125 L 11.390625 -15.953125 L 11.390625 -10.71875 L 9.96875 -10.71875 C 9.96875 -11.28125 9.859375 -11.8125 9.640625 -12.3125 C 9.421875 -12.820312 9.128906 -13.257812 8.765625 -13.625 C 8.398438 -13.988281 7.96875 -14.273438 7.46875 -14.484375 C 6.96875 -14.691406 6.4375 -14.796875 5.875 -14.796875 C 5.019531 -14.796875 4.304688 -14.59375 3.734375 -14.1875 C 3.171875 -13.78125 2.71875 -13.242188 2.375 -12.578125 C 2.03125 -11.921875 1.785156 -11.1875 1.640625 -10.375 C 1.503906 -9.570312 1.4375 -8.769531 1.4375 -7.96875 C 1.4375 -7.164062 1.503906 -6.359375 1.640625 -5.546875 C 1.785156 -4.734375 2.03125 -4.003906 2.375 -3.359375 C 2.71875 -2.710938 3.171875 -2.179688 3.734375 -1.765625 C 4.304688 -1.359375 5.019531 -1.15625 5.875 -1.15625 C 7.863281 -1.15625 9.253906 -2.351562 10.046875 -4.75 Z M 11.5 -4.1875 "/></g></g></g><g fill="#00ff00" fill-opacity="1"><g transform="translate(238.665162, 64.499998)"><g><path d="M 11.828125 -7.96875 C 11.828125 -6.894531 11.71875 -5.859375 11.5 -4.859375 C 11.28125 -3.867188 10.925781 -2.992188 10.4375 -2.234375 C 9.957031 -1.472656 9.328125 -0.863281 8.546875 -0.40625 C 7.773438 0.0507812 6.832031 0.28125 5.71875 0.28125 C 4.59375 0.28125 3.640625 0.0507812 2.859375 -0.40625 C 2.085938 -0.863281 1.457031 -1.472656 0.96875 -2.234375 C 0.488281 -2.992188 0.140625 -3.867188 -0.078125 -4.859375 C -0.296875 -5.859375 -0.40625 -6.894531 -0.40625 -7.96875 C -0.40625 -9.03125 -0.296875 -10.054688 -0.078125 -11.046875 C 0.140625 -12.046875 0.492188 -12.925781 0.984375 -13.6875 C 1.472656 -14.457031 2.109375 -15.070312 2.890625 -15.53125 C 3.671875 -16 4.613281 -16.234375 5.71875 -16.234375 C 6.8125 -16.234375 7.75 -16 8.53125 -15.53125 C 9.3125 -15.070312 9.941406 -14.457031 10.421875 -13.6875 C 10.898438 -12.925781 11.253906 -12.046875 11.484375 -11.046875 C 11.710938 -10.054688 11.828125 -9.03125 11.828125 -7.96875 Z M 10.140625 -7.96875 C 10.140625 -9.019531 10.039062 -9.96875 9.84375 -10.8125 C 9.644531 -11.65625 9.359375 -12.375 8.984375 -12.96875 C 8.609375 -13.5625 8.144531 -14.015625 7.59375 -14.328125 C 7.039062 -14.640625 6.414062 -14.796875 5.71875 -14.796875 C 4.84375 -14.796875 4.117188 -14.59375 3.546875 -14.1875 C 2.984375 -13.78125 2.53125 -13.242188 2.1875 -12.578125 C 1.84375 -11.921875 1.601562 -11.1875 1.46875 -10.375 C 1.332031 -9.570312 1.265625 -8.769531 1.265625 -7.96875 C 1.265625 -7.164062 1.332031 -6.359375 1.46875 -5.546875 C 1.601562 -4.734375 1.84375 -4.003906 2.1875 -3.359375 C 2.53125 -2.710938 2.984375 -2.179688 3.546875 -1.765625 C 4.117188 -1.359375 4.84375 -1.15625 5.71875 -1.15625 C 6.570312 -1.15625 7.285156 -1.359375 7.859375 -1.765625 C 8.429688 -2.179688 8.890625 -2.710938 9.234375 -3.359375 C 9.578125 -4.003906 9.8125 -4.734375 9.9375 -5.546875 C 10.070312 -6.359375 10.140625 -7.164062 10.140625 -7.96875 Z M 10.140625 -7.96875 "/></g></g></g><g fill="#00ff00" fill-opacity="1"><g transform="translate(252.336079, 64.499998)"><g><path d="M 11.921875 -7.96875 C 11.921875 -6.894531 11.804688 -5.875 11.578125 -4.90625 C 11.359375 -3.945312 11 -3.097656 10.5 -2.359375 C 10.007812 -1.628906 9.375 -1.050781 8.59375 -0.625 C 7.820312 -0.207031 6.882812 0 5.78125 0 L 0.59375 0 L 0.59375 -15.953125 L 5.78125 -15.953125 C 6.863281 -15.953125 7.796875 -15.734375 8.578125 -15.296875 C 9.359375 -14.867188 9.992188 -14.285156 10.484375 -13.546875 C 10.984375 -12.816406 11.347656 -11.96875 11.578125 -11 C 11.804688 -10.039062 11.921875 -9.03125 11.921875 -7.96875 Z M 10.25 -7.96875 C 10.25 -10.050781 9.851562 -11.664062 9.0625 -12.8125 C 8.28125 -13.957031 7.1875 -14.53125 5.78125 -14.53125 L 2.28125 -14.53125 L 2.28125 -1.4375 L 5.78125 -1.4375 C 7.1875 -1.4375 8.28125 -2 9.0625 -3.125 C 9.851562 -4.257812 10.25 -5.875 10.25 -7.96875 Z M 10.25 -7.96875 "/></g></g></g><g fill="#00ff00" fill-opacity="1"><g transform="translate(266.006996, 64.499998)"><g><path d="M 10.796875 0 L 0.59375 0 L 0.59375 -15.953125 L 10.796875 -15.953125 L 10.796875 -14.53125 L 2.28125 -14.53125 L 2.28125 -8.8125 L 8.5625 -8.8125 L 8.5625 -7.390625 L 2.28125 -7.390625 L 2.28125 -1.4375 L 10.796875 -1.4375 Z M 10.796875 0 "/></g></g></g><g fill="#00ff00" fill-opacity="1"><g transform="translate(279.677912, 64.499998)"><g><path d="M 7.453125 -2.28125 L 4.109375 4.5625 L 2.9375 4.5625 L 5.203125 -2.28125 Z M 7.453125 -2.28125 "/></g></g></g><g fill="#00ff00" fill-opacity="1"><g transform="translate(293.355459, 64.499998)"><g/></g></g><g fill="#00ff00" fill-opacity="1"><g transform="translate(95.121092, 98.999996)"><g><path d="M 11.390625 -10.5625 L 9.96875 -10.5625 L 9.96875 -14.53125 L 6.546875 -14.53125 L 6.546875 -1.4375 L 9.109375 -1.4375 L 9.109375 0 L 2.28125 0 L 2.28125 -1.4375 L 4.859375 -1.4375 L 4.859375 -14.53125 L 1.4375 -14.53125 L 1.4375 -10.5625 L 0 -10.5625 L 0 -15.953125 L 11.390625 -15.953125 Z M 11.390625 -10.5625 "/></g></g></g><g fill="#00ff00" fill-opacity="1"><g transform="translate(108.792009, 98.999996)"><g><path d="M 10.796875 0 L 9.109375 0 L 9.109375 -7.390625 L 2.28125 -7.390625 L 2.28125 0 L 0.59375 0 L 0.59375 -15.953125 L 2.28125 -15.953125 L 2.28125 -8.8125 L 9.109375 -8.8125 L 9.109375 -15.953125 L 10.796875 -15.953125 Z M 10.796875 0 "/></g></g></g><g fill="#00ff00" fill-opacity="1"><g transform="translate(122.462925, 98.999996)"><g><path d="M 10.796875 0 L 0.59375 0 L 0.59375 -15.953125 L 10.796875 -15.953125 L 10.796875 -14.53125 L 2.28125 -14.53125 L 2.28125 -8.8125 L 8.5625 -8.8125 L 8.5625 -7.390625 L 2.28125 -7.390625 L 2.28125 -1.4375 L 10.796875 -1.4375 Z M 10.796875 0 "/></g></g></g><g fill="#00ff00" fill-opacity="1"><g transform="translate(136.133842, 98.999996)"><g><path d="M 11.546875 0 L 9.421875 0 L 4.75 -6.84375 L 2.28125 -6.84375 L 2.28125 0 L 0.59375 0 L 0.59375 -15.953125 L 5.859375 -15.953125 C 7.609375 -15.953125 8.960938 -15.570312 9.921875 -14.8125 C 10.890625 -14.050781 11.375 -12.910156 11.375 -11.390625 C 11.375 -10.722656 11.253906 -10.125 11.015625 -9.59375 C 10.785156 -9.0625 10.460938 -8.609375 10.046875 -8.234375 C 9.640625 -7.859375 9.148438 -7.554688 8.578125 -7.328125 C 8.015625 -7.097656 7.398438 -6.957031 6.734375 -6.90625 Z M 9.640625 -11.390625 C 9.640625 -12.484375 9.300781 -13.28125 8.625 -13.78125 C 7.957031 -14.28125 7.035156 -14.53125 5.859375 -14.53125 L 2.28125 -14.53125 L 2.28125 -8.265625 L 5.859375 -8.265625 C 7.035156 -8.265625 7.957031 -8.507812 8.625 -9 C 9.300781 -9.5 9.640625 -10.296875 9.640625 -11.390625 Z M 9.640625 -11.390625 "/></g></g></g><g fill="#00ff00" fill-opacity="1"><g transform="translate(149.804759, 98.999996)"><g><path d="M 10.796875 0 L 0.59375 0 L 0.59375 -15.953125 L 10.796875 -15.953125 L 10.796875 -14.53125 L 2.28125 -14.53125 L 2.28125 -8.8125 L 8.5625 -8.8125 L 8.5625 -7.390625 L 2.28125 -7.390625 L 2.28125 -1.4375 L 10.796875 -1.4375 Z M 10.796875 0 "/></g></g></g><g fill="#00ff00" fill-opacity="1"><g transform="translate(163.475675, 98.999996)"><g><path d="M 10.796875 -14.53125 L 2.28125 -14.53125 L 2.28125 -8.8125 L 8.5625 -8.8125 L 8.5625 -7.390625 L 2.28125 -7.390625 L 2.28125 0 L 0.59375 0 L 0.59375 -15.953125 L 10.796875 -15.953125 Z M 10.796875 -14.53125 "/></g></g></g><g fill="#00ff00" fill-opacity="1"><g transform="translate(177.146592, 98.999996)"><g><path d="M 11.828125 -7.96875 C 11.828125 -6.894531 11.71875 -5.859375 11.5 -4.859375 C 11.28125 -3.867188 10.925781 -2.992188 10.4375 -2.234375 C 9.957031 -1.472656 9.328125 -0.863281 8.546875 -0.40625 C 7.773438 0.0507812 6.832031 0.28125 5.71875 0.28125 C 4.59375 0.28125 3.640625 0.0507812 2.859375 -0.40625 C 2.085938 -0.863281 1.457031 -1.472656 0.96875 -2.234375 C 0.488281 -2.992188 0.140625 -3.867188 -0.078125 -4.859375 C -0.296875 -5.859375 -0.40625 -6.894531 -0.40625 -7.96875 C -0.40625 -9.03125 -0.296875 -10.054688 -0.078125 -11.046875 C 0.140625 -12.046875 0.492188 -12.925781 0.984375 -13.6875 C 1.472656 -14.457031 2.109375 -15.070312 2.890625 -15.53125 C 3.671875 -16 4.613281 -16.234375 5.71875 -16.234375 C 6.8125 -16.234375 7.75 -16 8.53125 -15.53125 C 9.3125 -15.070312 9.941406 -14.457031 10.421875 -13.6875 C 10.898438 -12.925781 11.253906 -12.046875 11.484375 -11.046875 C 11.710938 -10.054688 11.828125 -9.03125 11.828125 -7.96875 Z M 10.140625 -7.96875 C 10.140625 -9.019531 10.039062 -9.96875 9.84375 -10.8125 C 9.644531 -11.65625 9.359375 -12.375 8.984375 -12.96875 C 8.609375 -13.5625 8.144531 -14.015625 7.59375 -14.328125 C 7.039062 -14.640625 6.414062 -14.796875 5.71875 -14.796875 C 4.84375 -14.796875 4.117188 -14.59375 3.546875 -14.1875 C 2.984375 -13.78125 2.53125 -13.242188 2.1875 -12.578125 C 1.84375 -11.921875 1.601562 -11.1875 1.46875 -10.375 C 1.332031 -9.570312 1.265625 -8.769531 1.265625 -7.96875 C 1.265625 -7.164062 1.332031 -6.359375 1.46875 -5.546875 C 1.601562 -4.734375 1.84375 -4.003906 2.1875 -3.359375 C 2.53125 -2.710938 2.984375 -2.179688 3.546875 -1.765625 C 4.117188 -1.359375 4.84375 -1.15625 5.71875 -1.15625 C 6.570312 -1.15625 7.285156 -1.359375 7.859375 -1.765625 C 8.429688 -2.179688 8.890625 -2.710938 9.234375 -3.359375 C 9.578125 -4.003906 9.8125 -4.734375 9.9375 -5.546875 C 10.070312 -6.359375 10.140625 -7.164062 10.140625 -7.96875 Z M 10.140625 -7.96875 "/></g></g></g><g fill="#00ff00" fill-opacity="1"><g transform="translate(190.817509, 98.999996)"><g><path d="M 11.546875 0 L 9.421875 0 L 4.75 -6.84375 L 2.28125 -6.84375 L 2.28125 0 L 0.59375 0 L 0.59375 -15.953125 L 5.859375 -15.953125 C 7.609375 -15.953125 8.960938 -15.570312 9.921875 -14.8125 C 10.890625 -14.050781 11.375 -12.910156 11.375 -11.390625 C 11.375 -10.722656 11.253906 -10.125 11.015625 -9.59375 C 10.785156 -9.0625 10.460938 -8.609375 10.046875 -8.234375 C 9.640625 -7.859375 9.148438 -7.554688 8.578125 -7.328125 C 8.015625 -7.097656 7.398438 -6.957031 6.734375 -6.90625 Z M 9.640625 -11.390625 C 9.640625 -12.484375 9.300781 -13.28125 8.625 -13.78125 C 7.957031 -14.28125 7.035156 -14.53125 5.859375 -14.53125 L 2.28125 -14.53125 L 2.28125 -8.265625 L 5.859375 -8.265625 C 7.035156 -8.265625 7.957031 -8.507812 8.625 -9 C 9.300781 -9.5 9.640625 -10.296875 9.640625 -11.390625 Z M 9.640625 -11.390625 "/></g></g></g><g fill="#00ff00" fill-opacity="1"><g transform="translate(204.488426, 98.999996)"><g><path d="M 10.796875 0 L 0.59375 0 L 0.59375 -15.953125 L 10.796875 -15.953125 L 10.796875 -14.53125 L 2.28125 -14.53125 L 2.28125 -8.8125 L 8.5625 -8.8125 L 8.5625 -7.390625 L 2.28125 -7.390625 L 2.28125 -1.4375 L 10.796875 -1.4375 Z M 10.796875 0 "/></g></g></g><g fill="#00ff00" fill-opacity="1"><g transform="translate(231.830259, 98.999996)"><g><path d="M 9.109375 0 L 2.28125 0 L 2.28125 -1.4375 L 4.859375 -1.4375 L 4.859375 -14.53125 L 2.28125 -14.53125 L 2.28125 -15.953125 L 9.109375 -15.953125 L 9.109375 -14.53125 L 6.546875 -14.53125 L 6.546875 -1.4375 L 9.109375 -1.4375 Z M 9.109375 0 "/></g></g></g><g fill="#00ff00" fill-opacity="1"><g transform="translate(259.172092, 98.999996)"><g><path d="M 12.171875 0 L 10.375 0 L 8.859375 -4.5625 L 2.5625 -4.5625 L 1.078125 0 L -0.71875 0 L 4.59375 -15.953125 L 6.859375 -15.953125 Z M 8.390625 -6.046875 L 5.71875 -14.265625 L 3.03125 -6.046875 Z M 8.390625 -6.046875 "/></g></g></g><g fill="#00ff00" fill-opacity="1"><g transform="translate(272.843009, 98.999996)"><g><path d="M 10.796875 0 L 9.109375 0 L 9.109375 -13.296875 L 6.28125 -5.0625 L 5.09375 -5.0625 L 2.28125 -13.296875 L 2.28125 0 L 0.59375 0 L 0.59375 -15.953125 L 2.78125 -15.953125 L 5.6875 -7.625 L 8.625 -15.953125 L 10.796875 -15.953125 Z M 10.796875 0 "/></g></g></g><g fill="#00ff00" fill-opacity="1"><g transform="translate(300.184831, 98.999996)"><g><path d="M 9.640625 -0.546875 L 8.703125 0.421875 L 2.4375 -5.84375 L 8.703125 -12.109375 L 9.640625 -11.125 L 4.359375 -5.84375 Z M 9.640625 -0.546875 "/></g></g></g><g fill="#00ff00" fill-opacity="1"><g transform="translate(313.855759, 98.999996)"><g><path d="M 11.0625 -15.9375 L 1.703125 2.9375 L 0.5 2.296875 L 9.875 -16.5625 Z M 11.0625 -15.9375 "/></g></g></g><g fill="#00ff00" fill-opacity="1"><g transform="translate(327.526687, 98.999996)"><g><path d="M 11.375 -11.390625 C 11.375 -9.859375 10.890625 -8.71875 9.921875 -7.96875 C 8.960938 -7.21875 7.613281 -6.84375 5.875 -6.84375 L 2.28125 -6.84375 L 2.28125 0 L 0.59375 0 L 0.59375 -15.953125 L 5.859375 -15.953125 C 7.609375 -15.953125 8.960938 -15.570312 9.921875 -14.8125 C 10.890625 -14.050781 11.375 -12.910156 11.375 -11.390625 Z M 9.703125 -11.390625 C 9.703125 -12.492188 9.351562 -13.289062 8.65625 -13.78125 C 7.96875 -14.28125 7.039062 -14.53125 5.875 -14.53125 L 2.28125 -14.53125 L 2.28125 -8.265625 L 5.875 -8.265625 C 7.039062 -8.265625 7.96875 -8.507812 8.65625 -9 C 9.351562 -9.5 9.703125 -10.296875 9.703125 -11.390625 Z M 9.703125 -11.390625 "/></g></g></g><g fill="#00ff00" fill-opacity="1"><g transform="translate(341.197615, 98.999996)"><g><path d="M 8.96875 -5.84375 L 2.703125 0.421875 L 1.75 -0.546875 L 7.03125 -5.84375 L 1.75 -11.125 L 2.703125 -12.109375 Z M 8.96875 -5.84375 "/></g></g></g></svg>